<svg width="34" height="46" viewBox="0 0 34 46" fill="none" xmlns="http://www.w3.org/2000/svg">
<path fill-rule="evenodd" clip-rule="evenodd" d="M12.1568 12.6865C12.1047 12.7178 12.0551 12.7522 12.0075 12.789L1.15708 6.27006L0.599071 5.93489C0.647446 5.89677 0.698831 5.86146 0.752525 5.82919L10.1049 0.209767C10.5707 -0.0701488 11.1443 -0.0696265 11.6097 0.209559L20.9625 5.82961C21.3677 6.07349 21.6375 6.49587 21.7003 6.97037C21.635 6.99753 21.5712 7.02991 21.5092 7.06709L12.1568 12.6865ZM32.5428 26.5145C32.4889 26.4708 32.4315 26.4299 32.371 26.394L23.0183 20.774C22.9642 20.7417 22.9095 20.7136 22.8529 20.6887C22.4933 20.5297 22.0884 20.5229 21.7245 20.6692L21.7092 20.6755C21.7037 20.6778 21.6983 20.6801 21.6927 20.6823C21.6319 20.7083 21.5717 20.7393 21.5135 20.7742L12.1611 26.3936C12.1029 26.4285 12.0471 26.4673 11.9951 26.5091L11.9836 26.516C11.6758 26.2663 11.4733 25.9013 11.4195 25.499L11.4309 25.4922C11.4917 25.4662 11.552 25.4352 11.6101 25.4003L20.9625 19.7809C21.0206 19.746 21.0765 19.7071 21.1286 19.6654L21.1373 19.6582C21.1438 19.6529 21.1503 19.6476 21.1562 19.642C21.4599 19.3872 21.6563 19.0183 21.7032 18.6149C21.7111 18.5523 21.715 18.4889 21.715 18.4249L21.7146 7.18549C21.715 7.113 21.7098 7.04083 21.7003 6.97043L21.7244 6.9604C22.0884 6.81554 22.4939 6.82347 22.8533 6.98338C22.8536 6.98401 22.8542 6.98369 22.8545 6.98422C22.909 7.00803 22.9619 7.03571 23.0141 7.06694L32.3668 12.6869C32.8326 12.9668 33.119 13.4831 33.119 14.0428L33.1193 25.2822C33.1193 25.3448 33.1158 25.4064 33.1084 25.4674L33.1088 25.4679C33.0621 25.8719 32.8666 26.2409 32.5639 26.4965L32.5565 26.5031L32.5472 26.5109L32.5428 26.5145ZM21.7246 46C21.6528 45.971 21.5822 45.9366 21.5139 45.8957L12.161 40.2957C11.6954 40.0169 11.4088 39.5023 11.4089 38.9447L11.4085 27.7453C11.4089 27.2624 11.6243 26.8106 11.9851 26.5173C12.039 26.5609 12.0964 26.6015 12.1568 26.6374L12.5595 26.8783L21.5096 32.2375C21.5792 32.2791 21.6509 32.3143 21.7247 32.3428V44.6572L21.7246 46ZM23.0186 45.9118L32.371 40.298C32.8369 40.0191 33.1232 39.5038 33.1235 38.9466L33.1232 27.7456C33.1229 27.2601 32.9063 26.8073 32.5428 26.5145C32.4875 26.5596 32.4287 26.6008 32.3668 26.6379L23.0144 32.238C22.9617 32.2695 22.9077 32.2974 22.8533 32.3218L22.8531 45.3148L22.8534 45.9972C22.9098 45.9725 22.9648 45.9439 23.0186 45.9118ZM10.1053 25.4005C10.5089 25.6425 10.9937 25.675 11.4191 25.497C11.4096 25.4266 11.4044 25.3545 11.4047 25.282L11.4049 24.7983L11.4044 14.0426C11.4043 13.959 11.411 13.8758 11.4241 13.795L1.14011 7.61582L0.0185669 6.94214C0.00632279 7.02173 0.000100362 7.10309 0 7.18529L0.000401447 18.4247C0.000401447 18.9843 0.286834 19.5007 0.752613 19.7806L10.1053 25.4005Z" fill="#009EFF"/>
</svg>
